<svg width="83" height="19" viewBox="0 0 83 19" fill="none" xmlns="http://www.w3.org/2000/svg">
<path d="M8.448 3.072C7.89333 3.072 7.46667 3.12 7.168 3.216C6.88 3.30133 6.67733 3.44533 6.56 3.648C6.45333 3.85067 6.39467 4.13333 6.384 4.496H10.336V6.864H6.384V14H3.296V6.864H0.848V4.496H3.296V4.176C3.296 3.13067 3.648 2.33067 4.352 1.776C5.056 1.21067 6.10667 0.927999 7.504 0.927999C8.496 0.927999 9.44 0.981333 10.336 1.088V3.184C9.472 3.10933 8.84267 3.072 8.448 3.072ZM21.3215 6.864H17.0975V9.84C17.0975 10.5227 17.2202 11.008 17.4655 11.296C17.7215 11.584 18.1908 11.728 18.8735 11.728C19.2682 11.728 19.6362 11.712 19.9775 11.68C20.3188 11.6373 20.7668 11.5627 21.3215 11.456V13.968C20.1268 14.2027 19.0708 14.32 18.1535 14.32C16.7135 14.32 15.6628 14.0427 15.0015 13.488C14.3402 12.9227 14.0095 12 14.0095 10.72V6.864H11.7855V4.496H14.0095V2.592L17.0975 1.728V4.496H21.3215V6.864ZM29.7344 12.288L33.6864 4.496H36.8864L32.0224 14H27.4464L22.5824 4.496H25.7664L29.7344 12.288ZM46.9151 4.176C48.5258 4.176 49.7685 4.56 50.6431 5.328C51.5285 6.096 51.9765 7.33333 51.9871 9.04V14H48.9151V10.08C48.9151 8.93867 48.6645 8.10133 48.1631 7.568C47.6618 7.03467 46.7925 6.768 45.5551 6.768C44.2538 6.768 43.2351 7.06133 42.4991 7.648C41.7631 8.23467 41.3951 9.104 41.3951 10.256V14H38.3071V4.496H41.3951V6.672C42.0245 5.872 42.7818 5.25867 43.6671 4.832C44.5631 4.39467 45.6458 4.176 46.9151 4.176ZM62.6965 6.864H58.4725V9.84C58.4725 10.5227 58.5952 11.008 58.8405 11.296C59.0965 11.584 59.5658 11.728 60.2485 11.728C60.6432 11.728 61.0112 11.712 61.3525 11.68C61.6938 11.6373 62.1418 11.5627 62.6965 11.456V13.968C61.5018 14.2027 60.4458 14.32 59.5285 14.32C58.0885 14.32 57.0378 14.0427 56.3765 13.488C55.7152 12.9227 55.3845 12 55.3845 10.72V6.864H53.1605V4.496H55.3845V2.592L58.4725 1.728V4.496H62.6965V6.864ZM75.1734 4.496H78.3574L73.4134 14.16C72.9547 15.0667 72.4907 15.808 72.0214 16.384C71.552 16.96 70.9974 17.3973 70.3574 17.696C69.7174 18.0053 68.96 18.16 68.0854 18.16C66.9974 18.16 65.856 18 64.6614 17.68V15.264C65.9414 15.5413 66.9227 15.68 67.6054 15.68C68.0747 15.68 68.4534 15.6373 68.7414 15.552C69.0294 15.4773 69.296 15.3173 69.5414 15.072C69.7867 14.8373 70.0374 14.48 70.2934 14H68.7894L63.9574 4.496H67.1574L71.1574 12.352L75.1734 4.496ZM78.9478 14V11.52H82.1478V14H78.9478Z" fill="black"/>
</svg>
