<svg width="65" height="19" viewBox="0 0 65 19" fill="none" xmlns="http://www.w3.org/2000/svg">
<path d="M3.99878 19H0.000976562V18.0051H0.99585V3.00269H0.000976562V2.00171H0.99585V1.00073H1.99683V0.00585938H2.9978V13.0002H3.99878V12.0054H4.99976V13.0002H6.00073V14.0012H6.99561V15.0022H7.99658V16.0032H8.99756V17.0042H9.99854V18.0051H10.9995V19H6.99561V18.0051H7.99658V17.0042H6.99561V16.0032H6.00073V15.0022H4.99976V14.0012H2.9978V18.0051H3.99878V19ZM7.99658 10.0034H6.99561V9.00244H5.50024V8.00146H9.99854V9.00244H7.99658V10.0034ZM6.99561 11.0044H6.00073V10.0034H6.99561V11.0044ZM6.00073 12.0054H4.99976V11.0044H6.00073V12.0054ZM18.9829 19H13.9841V18.0051H12.9832V17.0042H11.9822V15.0022H10.9873V12.0054H11.9822V10.0034H12.9832V9.00244H13.9841V8.00146H18.9829V9.00244H19.9839V10.0034H20.9849V12.0054H21.9858V15.0022H20.9849V17.0042H19.9839V18.0051H18.9829V19ZM14.9851 18.0051H17.9819V17.0042H18.9829V15.0022H19.9839V12.0054H18.9829V10.0034H17.9819V9.00244H14.9851V10.0034H13.9841V12.0054H12.9832V15.0022H13.9841V17.0042H14.9851V18.0051ZM34.9985 19H31.9956V18.0051H30.9946V17.0042H31.9956V10.0034H30.9946V9.00244H31.9956V3.00269H30.9946V2.00171H31.9956V1.00073H32.9966V0.00585938H33.9976V18.0051H34.9985V19ZM30.9946 19H26.9968V18.0051H25.9958V17.0042H24.9949V15.0022H24V12.0054H24.9949V10.0034H25.9958V9.00244H26.9968V8.00146H30.9946V9.00244H27.9978V10.0034H26.9968V12.0054H25.9958V15.0022H26.9968V17.0042H27.9978V18.0051H30.9946V19ZM43.9829 19H38.9841V18.0051H37.9832V17.0042H36.9822V15.0022H35.9873V12.0054H36.9822V10.0034H37.9832V11.0044H43.9829V10.0034H42.9819V9.00244H38.9841V8.00146H43.9829V9.00244H44.9839V10.0034H45.9849V12.0054H37.9832V15.0022H38.9841V17.0042H39.9851V18.0051H43.9829V19ZM38.9841 10.0034H37.9832V9.00244H38.9841V10.0034ZM45.9849 17.0042H44.9839V16.0032H45.9849V17.0042ZM44.9839 18.0051H43.9829V17.0042H44.9839V18.0051ZM51.4841 19H47.4863V18.0051H48.4812V3.00269H47.4863V2.00171H48.4812V1.00073H49.4822V0.00585938H50.4832V13.0002H51.4841V12.0054H52.4851V13.0002H53.4861V14.0012H54.481V15.0022H55.4819V16.0032H56.4829V17.0042H57.4839V18.0051H58.4849V19H54.481V18.0051H55.4819V17.0042H54.481V16.0032H53.4861V15.0022H52.4851V14.0012H50.4832V18.0051H51.4841V19ZM55.4819 10.0034H54.481V9.00244H52.9856V8.00146H57.4839V9.00244H55.4819V10.0034ZM54.481 11.0044H53.4861V10.0034H54.481V11.0044ZM53.4861 12.0054H52.4851V11.0044H53.4861V12.0054ZM62.9832 8.00146H61.9822V6.00562H60.9812V4.00366H61.9822V2.00171H62.9832V4.00366H63.9841V6.00562H62.9832V8.00146ZM60.9812 4.00366H59.9863V3.00269H60.9812V4.00366ZM64.9851 4.00366H63.9841V3.00269H64.9851V4.00366ZM60.9812 7.00049H59.9863V6.00562H60.9812V7.00049ZM64.9851 7.00049H63.9841V6.00562H64.9851V7.00049Z" fill="#262626"/>
</svg>
