<svg width="129" height="38" viewBox="0 0 129 38" fill="none" xmlns="http://www.w3.org/2000/svg">
<path d="M3.212 9.86C3.212 10.604 3.626 11.168 4.454 11.552C5.294 11.924 6.722 12.11 8.738 12.11C10.442 12.11 11.648 11.972 12.356 11.696C13.064 11.408 13.418 10.97 13.418 10.382C13.418 9.962 13.286 9.656 13.022 9.464C12.77 9.26 12.296 9.11 11.6 9.014C10.904 8.906 9.77 8.798 8.198 8.69C6.374 8.582 4.922 8.39 3.842 8.114C2.774 7.826 1.982 7.412 1.466 6.872C0.95 6.32 0.692 5.582 0.692 4.658C0.692 3.35 1.328 2.402 2.6 1.814C3.884 1.226 5.714 0.932 8.09 0.932C10.526 0.932 12.416 1.298 13.76 2.03C15.116 2.75 15.806 3.812 15.83 5.216H12.878C12.878 4.724 12.704 4.328 12.356 4.028C12.02 3.728 11.486 3.512 10.754 3.38C10.022 3.248 9.05 3.182 7.838 3.182C6.746 3.182 5.894 3.242 5.282 3.362C4.67 3.47 4.244 3.638 4.004 3.866C3.764 4.082 3.644 4.37 3.644 4.73C3.644 5.114 3.77 5.408 4.022 5.612C4.274 5.816 4.73 5.978 5.39 6.098C6.062 6.206 7.076 6.308 8.432 6.404C10.448 6.548 11.966 6.716 12.986 6.908C14.018 7.088 14.84 7.436 15.452 7.952C16.064 8.456 16.37 9.224 16.37 10.256C16.37 11.792 15.71 12.86 14.39 13.46C13.07 14.06 11.21 14.36 8.81 14.36C6.074 14.36 3.986 14.018 2.546 13.334C1.118 12.638 0.362 11.48 0.278 9.86H3.212ZM31.9714 1.292V3.596H21.4054V6.494H31.6114V8.798H21.4054V11.696H31.9714V14H18.6514V1.292H31.9714ZM46.9105 8.546C47.5465 8.642 48.0325 8.894 48.3685 9.302C48.7165 9.71 48.8905 10.244 48.8905 10.904V14H46.1185V11.516C46.1185 11.084 46.0705 10.76 45.9745 10.544C45.8905 10.328 45.7285 10.178 45.4885 10.094C45.2485 9.998 44.8945 9.95 44.4265 9.95H37.1905V14H34.4365V1.292H44.0125C45.6085 1.292 46.8385 1.61 47.7025 2.246C48.5785 2.882 49.0165 3.86 49.0165 5.18C49.0165 6.86 48.3145 7.982 46.9105 8.546ZM37.1905 3.65V7.574H43.3105C43.8865 7.574 44.3545 7.544 44.7145 7.484C45.0865 7.412 45.4045 7.238 45.6685 6.962C45.9325 6.674 46.0645 6.224 46.0645 5.612C46.0645 5 45.9325 4.556 45.6685 4.28C45.4045 3.992 45.0865 3.818 44.7145 3.758C44.3545 3.686 43.8865 3.65 43.3105 3.65H37.1905ZM51.1315 7.646C51.1315 6.254 51.4555 5.054 52.1035 4.046C52.7515 3.038 53.6815 2.27 54.8935 1.742C56.1175 1.202 57.5635 0.932 59.2315 0.932C60.7555 0.932 62.0755 1.148 63.1915 1.58C64.3075 2 65.1775 2.582 65.8015 3.326C66.4255 4.07 66.7975 4.91 66.9175 5.846H63.9295C63.7615 5.078 63.2815 4.472 62.4895 4.028C61.6975 3.572 60.6175 3.344 59.2495 3.344C57.8935 3.344 56.8315 3.578 56.0635 4.046C55.2955 4.502 54.7675 5.06 54.4795 5.72C54.2035 6.368 54.0655 7.028 54.0655 7.7C54.0655 8.372 54.2155 9.038 54.5155 9.698C54.8155 10.346 55.3675 10.904 56.1715 11.372C56.9875 11.828 58.1095 12.056 59.5375 12.056C60.5455 12.056 61.3975 11.984 62.0935 11.84C62.7895 11.696 63.5275 11.462 64.3075 11.138V9.356H59.1235V7.268H66.9175V12.416C65.5975 13.124 64.3615 13.628 63.2095 13.928C62.0695 14.216 60.8215 14.36 59.4655 14.36C57.7615 14.36 56.2795 14.096 55.0195 13.568C53.7715 13.028 52.8115 12.254 52.1395 11.246C51.4675 10.226 51.1315 9.026 51.1315 7.646ZM69.3818 1.292H72.1358V14H69.3818V1.292ZM90.6007 7.808C90.6007 10.016 89.9647 11.66 88.6927 12.74C87.4207 13.82 85.4167 14.36 82.6807 14.36C79.9327 14.36 77.9227 13.826 76.6507 12.758C75.3907 11.678 74.7607 10.028 74.7607 7.808V1.292H77.5147V7.754C77.5147 8.522 77.6347 9.212 77.8747 9.824C78.1267 10.424 78.6307 10.928 79.3867 11.336C80.1547 11.744 81.2527 11.948 82.6807 11.948C84.1087 11.948 85.2007 11.744 85.9567 11.336C86.7127 10.928 87.2107 10.424 87.4507 9.824C87.7027 9.212 87.8287 8.522 87.8287 7.754V1.292H90.6007V7.808ZM20.312 24.292V37H17.54V26.758L11.654 37H9.116L3.212 26.758V37H0.458V24.292H4.796L10.376 33.832L15.956 24.292H20.312ZM39.9656 37H36.8876L35.4296 34.354H26.6636L25.2056 37H22.1276L29.2016 24.292H32.8736L39.9656 37ZM31.0376 26.416L27.9056 32.104H34.1876L31.0376 26.416ZM61.6206 24.292V37H58.8486V26.758L52.9626 37H50.4246L44.5206 26.758V37H41.7666V24.292H46.1046L51.6846 33.832L57.2646 24.292H61.6206ZM80.0714 30.808C80.0714 33.016 79.4354 34.66 78.1634 35.74C76.8914 36.82 74.8874 37.36 72.1514 37.36C69.4034 37.36 67.3934 36.826 66.1214 35.758C64.8614 34.678 64.2314 33.028 64.2314 30.808V24.292H66.9854V30.754C66.9854 31.522 67.1054 32.212 67.3454 32.824C67.5974 33.424 68.1014 33.928 68.8574 34.336C69.6254 34.744 70.7234 34.948 72.1514 34.948C73.5794 34.948 74.6714 34.744 75.4274 34.336C76.1834 33.928 76.6814 33.424 76.9214 32.824C77.1734 32.212 77.2994 31.522 77.2994 30.754V24.292H80.0714V30.808ZM85.4249 24.292V34.588H94.8749V37H82.6709V24.292H85.4249ZM114.831 37H111.753L110.295 34.354H101.529L100.071 37H96.9928L104.067 24.292H107.739L114.831 37ZM105.903 26.416L102.771 32.104H109.053L105.903 26.416ZM128.012 24.292V26.704H121.658V37H118.886V26.704H112.532V24.292H128.012Z" fill="#242424"/>
</svg>
